<mxfile host="app.diagrams.net" modified="2022-08-04T08:26:20.539Z" agent="5.0 (Windows NT 10.0; Win64; x64) AppleWebKit/537.36 (KHTML, like Gecko) Chrome/103.0.0.0 Safari/537.36" etag="AwZpknBj3lODURRnP_f7" version="20.0.1" type="github">
  <diagram id="Eu5KaF82Etytcw_lHAuo" name="第 1 页">
    <mxGraphModel dx="877" dy="441" grid="1" gridSize="10" guides="1" tooltips="1" connect="1" arrows="1" fold="1" page="1" pageScale="1" pageWidth="827" pageHeight="1169" math="0" shadow="0">
      <root>
        <mxCell id="0" />
        <mxCell id="1" parent="0" />
        <mxCell id="QEToAd3EMXx1rYYdfRXe-6" style="edgeStyle=orthogonalEdgeStyle;rounded=0;orthogonalLoop=1;jettySize=auto;html=1;exitX=0.5;exitY=1;exitDx=0;exitDy=0;exitPerimeter=0;entryX=0.5;entryY=0;entryDx=0;entryDy=0;" parent="1" source="QEToAd3EMXx1rYYdfRXe-1" target="QEToAd3EMXx1rYYdfRXe-5" edge="1">
          <mxGeometry relative="1" as="geometry" />
        </mxCell>
        <mxCell id="QEToAd3EMXx1rYYdfRXe-1" value="开始" style="strokeWidth=2;html=1;shape=mxgraph.flowchart.start_2;whiteSpace=wrap;" parent="1" vertex="1">
          <mxGeometry x="384" y="110" width="56" height="40" as="geometry" />
        </mxCell>
        <mxCell id="QEToAd3EMXx1rYYdfRXe-9" value="" style="edgeStyle=orthogonalEdgeStyle;rounded=0;orthogonalLoop=1;jettySize=auto;html=1;" parent="1" source="QEToAd3EMXx1rYYdfRXe-3" target="QEToAd3EMXx1rYYdfRXe-8" edge="1">
          <mxGeometry relative="1" as="geometry" />
        </mxCell>
        <mxCell id="QEToAd3EMXx1rYYdfRXe-13" style="edgeStyle=orthogonalEdgeStyle;rounded=0;orthogonalLoop=1;jettySize=auto;html=1;exitX=0;exitY=0.5;exitDx=0;exitDy=0;exitPerimeter=0;entryX=1;entryY=0.5;entryDx=0;entryDy=0;" parent="1" source="QEToAd3EMXx1rYYdfRXe-3" target="QEToAd3EMXx1rYYdfRXe-12" edge="1">
          <mxGeometry relative="1" as="geometry" />
        </mxCell>
        <mxCell id="QEToAd3EMXx1rYYdfRXe-3" value="是否进入低功耗？" style="strokeWidth=2;html=1;shape=mxgraph.flowchart.decision;whiteSpace=wrap;" parent="1" vertex="1">
          <mxGeometry x="350" y="245" width="128" height="50" as="geometry" />
        </mxCell>
        <mxCell id="QEToAd3EMXx1rYYdfRXe-7" style="edgeStyle=orthogonalEdgeStyle;rounded=0;orthogonalLoop=1;jettySize=auto;html=1;exitX=0.5;exitY=1;exitDx=0;exitDy=0;entryX=0.5;entryY=0;entryDx=0;entryDy=0;entryPerimeter=0;" parent="1" source="QEToAd3EMXx1rYYdfRXe-5" target="QEToAd3EMXx1rYYdfRXe-3" edge="1">
          <mxGeometry relative="1" as="geometry" />
        </mxCell>
        <mxCell id="QEToAd3EMXx1rYYdfRXe-5" value="系统复位后默认运行&lt;br&gt;&lt;font style=&quot;font-size: 12px;&quot;&gt;到HRC时钟&lt;/font&gt;" style="rounded=1;whiteSpace=wrap;html=1;absoluteArcSize=1;arcSize=14;strokeWidth=2;" parent="1" vertex="1">
          <mxGeometry x="355" y="170" width="118" height="50" as="geometry" />
        </mxCell>
        <mxCell id="QEToAd3EMXx1rYYdfRXe-8" value="运行PLL作为系统时钟" style="rounded=1;whiteSpace=wrap;html=1;absoluteArcSize=1;arcSize=14;strokeWidth=2;" parent="1" vertex="1">
          <mxGeometry x="350" y="320" width="128" height="30" as="geometry" />
        </mxCell>
        <mxCell id="QEToAd3EMXx1rYYdfRXe-10" value="N" style="text;html=1;align=center;verticalAlign=middle;resizable=0;points=[];autosize=1;strokeColor=none;fillColor=none;" parent="1" vertex="1">
          <mxGeometry x="414" y="295" width="20" height="20" as="geometry" />
        </mxCell>
        <mxCell id="xzZmTJNLC_8SwiiFBc0S-3" style="edgeStyle=orthogonalEdgeStyle;rounded=0;orthogonalLoop=1;jettySize=auto;html=1;exitX=0.5;exitY=1;exitDx=0;exitDy=0;entryX=0.5;entryY=0;entryDx=0;entryDy=0;fontFamily=Helvetica;fontSize=12;" edge="1" parent="1" source="QEToAd3EMXx1rYYdfRXe-12" target="xzZmTJNLC_8SwiiFBc0S-2">
          <mxGeometry relative="1" as="geometry" />
        </mxCell>
        <mxCell id="QEToAd3EMXx1rYYdfRXe-12" value="切换到HRC时钟,低功耗处理，关闭HRC,切换到LRC时钟进入HOLD模式" style="rounded=1;whiteSpace=wrap;html=1;absoluteArcSize=1;arcSize=14;strokeWidth=2;" parent="1" vertex="1">
          <mxGeometry x="160" y="241.88" width="150" height="56.25" as="geometry" />
        </mxCell>
        <mxCell id="QEToAd3EMXx1rYYdfRXe-14" value="Y" style="text;html=1;align=center;verticalAlign=middle;resizable=0;points=[];autosize=1;strokeColor=none;fillColor=none;" parent="1" vertex="1">
          <mxGeometry x="330" y="250" width="20" height="20" as="geometry" />
        </mxCell>
        <mxCell id="xzZmTJNLC_8SwiiFBc0S-6" style="edgeStyle=orthogonalEdgeStyle;rounded=0;orthogonalLoop=1;jettySize=auto;html=1;exitX=0;exitY=0.5;exitDx=0;exitDy=0;entryX=0;entryY=0.5;entryDx=0;entryDy=0;fontFamily=Helvetica;fontSize=12;" edge="1" parent="1" source="xzZmTJNLC_8SwiiFBc0S-2" target="QEToAd3EMXx1rYYdfRXe-12">
          <mxGeometry relative="1" as="geometry">
            <Array as="points">
              <mxPoint x="130" y="335" />
              <mxPoint x="130" y="270" />
            </Array>
          </mxGeometry>
        </mxCell>
        <mxCell id="xzZmTJNLC_8SwiiFBc0S-2" value="被唤醒" style="rhombus;whiteSpace=wrap;html=1;fontFamily=Helvetica;fontSize=12;" vertex="1" parent="1">
          <mxGeometry x="195" y="312.5" width="80" height="45" as="geometry" />
        </mxCell>
        <mxCell id="xzZmTJNLC_8SwiiFBc0S-4" style="edgeStyle=orthogonalEdgeStyle;rounded=0;orthogonalLoop=1;jettySize=auto;html=1;exitX=1;exitY=0.5;exitDx=0;exitDy=0;entryX=0.5;entryY=1;entryDx=0;entryDy=0;fontFamily=Helvetica;fontSize=12;" edge="1" parent="1" source="xzZmTJNLC_8SwiiFBc0S-2" target="xzZmTJNLC_8SwiiFBc0S-2">
          <mxGeometry relative="1" as="geometry" />
        </mxCell>
        <mxCell id="xzZmTJNLC_8SwiiFBc0S-5" value="N" style="text;html=1;align=center;verticalAlign=middle;resizable=0;points=[];autosize=1;strokeColor=none;fillColor=none;fontSize=12;fontFamily=Helvetica;" vertex="1" parent="1">
          <mxGeometry x="275" y="312.5" width="20" height="20" as="geometry" />
        </mxCell>
        <mxCell id="xzZmTJNLC_8SwiiFBc0S-7" value="Y" style="text;html=1;align=center;verticalAlign=middle;resizable=0;points=[];autosize=1;strokeColor=none;fillColor=none;fontSize=12;fontFamily=Helvetica;" vertex="1" parent="1">
          <mxGeometry x="175" y="315" width="20" height="20" as="geometry" />
        </mxCell>
      </root>
    </mxGraphModel>
  </diagram>
</mxfile>
